<svg width="24" height="24" viewBox="0 0 24 24" fill="none" xmlns="http://www.w3.org/2000/svg">
<path d="M22.2083 6.43374H17.6233L18.0573 1.44974C18.0993 0.969073 17.7423 0.545577 17.2616 0.502411C16.7751 0.467411 16.3563 0.817409 16.3143 1.29924L15.8675 6.43257H8.49415L8.92581 1.4509C8.96898 0.969064 8.61081 0.545577 8.13248 0.502411C7.64248 0.467411 7.22598 0.817409 7.18398 1.29924L6.73831 6.43257H2.12064C1.63764 6.43257 1.24564 6.82574 1.24564 7.30757C1.24564 7.7894 1.63764 8.18257 2.12064 8.18257H6.58665L5.94498 15.5641H1.20831C0.725313 15.5641 0.333313 15.9561 0.333313 16.4391C0.333313 16.9221 0.725313 17.3141 1.20831 17.3141H5.79331L5.35931 22.2981C5.31731 22.7787 5.67431 23.2022 6.15498 23.2454L6.23198 23.2489C6.68115 23.2489 7.06265 22.9047 7.10231 22.4486L7.54914 17.3152H14.9225L14.4908 22.2969C14.4488 22.7787 14.8058 23.2022 15.2865 23.2454L15.3635 23.2489C15.8126 23.2489 16.1941 22.9047 16.2338 22.4486L16.6795 17.3152H21.296C21.7778 17.3152 22.171 16.9221 22.171 16.4402C22.171 15.9584 21.7778 15.5652 21.296 15.5652H16.83L17.4716 8.18374H22.2083C22.6913 8.18374 23.0833 7.79174 23.0833 7.30874C23.0833 6.82574 22.6913 6.43374 22.2083 6.43374ZM15.0741 15.5641H7.70082L8.34248 8.18374H15.7158L15.0741 15.5641Z" fill="black"/>
</svg>
