<svg width="27" height="24" viewBox="0 0 27 24" fill="none" xmlns="http://www.w3.org/2000/svg">
<path d="M25.4601 6.83515L13.6709 0.473313C13.3244 0.286646 12.9079 0.286646 12.5626 0.473313L0.779253 6.83515C0.21225 7.14315 0.00108363 7.85013 0.306753 8.41714C0.516753 8.80797 0.919253 9.02965 1.33342 9.02965C1.52009 9.02965 1.71142 8.9853 1.88759 8.88963L2.74392 8.42764L4.59892 21.5526C4.85092 22.969 6.12725 23.9583 7.70225 23.9583H18.5312C20.1062 23.9583 21.3826 22.969 21.6369 21.5223L23.4896 8.42648L24.3494 8.89081C24.9152 9.19764 25.6234 8.98647 25.9291 8.41947C26.2359 7.85247 26.0224 7.14431 25.4577 6.83864L25.4601 6.83515ZM13.1167 16.2676C11.0226 16.2676 9.32509 14.5701 9.32509 12.476C9.32509 10.3818 11.0226 8.68431 13.1167 8.68431C15.2109 8.68431 16.9084 10.3818 16.9084 12.476C16.9084 14.5701 15.2109 16.2676 13.1167 16.2676Z" fill="black"/>
</svg>
